<svg id="Layer_1" data-name="Layer 1" xmlns="http://www.w3.org/2000/svg" viewBox="0 0 523.01 138.44"><defs><style>.cls-1{fill:#268bd2;}.cls-2{fill:#cb4b16;}</style></defs><path d="M59.61,59.05V91.58H50.94V59.05q0-7.08-2.48-10.41c-1.66-2.22-4.25-3.33-7.79-3.33q-6,0-9.3,4.29T28.11,61.91V91.58H19.49V18.64h8.62V47a16.18,16.18,0,0,1,6.24-6.82,18,18,0,0,1,9.32-2.33q8,0,12,5.28T59.61,59.05Z" transform="translate(-19.49 -18.36)"/><path d="M120.64,61v4.22H83.28v.28q-.37,10.73,4.11,15.42T100,85.63a30.59,30.59,0,0,0,8.62-1.32,52.43,52.43,0,0,0,9.61-4v8.58a58.18,58.18,0,0,1-9.49,3,41.14,41.14,0,0,1-8.84,1q-12.23,0-19.12-7.34T73.91,65.38q0-12.57,6.75-20.07t18-7.5q10,0,15.82,6.8A26.09,26.09,0,0,1,120.64,61ZM112,58.49a16.78,16.78,0,0,0-4-9.4q-3.41-4-9.78-4A13.74,13.74,0,0,0,88,49.25a14.55,14.55,0,0,0-4.41,9.28Z" transform="translate(-19.49 -18.36)"/><path d="M159.64,72.6q0,5.81,2.14,8.76a7.26,7.26,0,0,0,6.3,3h10.08v7.27H167.24q-7.74,0-12-4.94T151,72.6V25.11H137.19V18.36h22.45Z" transform="translate(-19.49 -18.36)"/><path d="M217.44,72.6q0,5.81,2.13,8.76a7.28,7.28,0,0,0,6.31,3H236v7.27H225q-7.72,0-12-4.94t-4.25-14V25.11H195V18.36h22.45Z" transform="translate(-19.49 -18.36)"/><path d="M270.41,37.81q10.92,0,16.71,7.08t5.79,20.49q0,13.45-5.77,20.51t-16.73,7q-10.92,0-16.69-7T248,65.38q0-13.41,5.76-20.49T270.41,37.81Zm0,7.32a11.14,11.14,0,0,0-9.94,5.11q-3.37,5.1-3.37,15.14t3.37,15.11a12.22,12.22,0,0,0,19.92,0q3.38-5.13,3.38-15.11t-3.38-15.14Q277,45.13,270.41,45.13Z" transform="translate(-19.49 -18.36)"/><path d="M317.56,72.64h16.5V91.58h-16.5Z" transform="translate(-19.49 -18.36)"/><path d="M385.91,24.17V39.08H405.5v6.7H385.91v28.5q0,5.82,2.2,8.11t7.69,2.3h9.7v6.89H395q-9.7,0-13.69-3.89t-4-13.41V45.78h-14v-6.7h14V24.17Z" transform="translate(-19.49 -18.36)"/><path d="M467.33,39.08l-18.8,25.13,20.63,27.37h-10l-15.37-21-15.33,21h-10l20.62-27.37-18.8-25.13h9.57l13.92,19,13.83-19Z" transform="translate(-19.49 -18.36)"/><path d="M501.5,24.17V39.08h19.6v6.7H501.5v28.5q0,5.82,2.21,8.11c1.46,1.53,4,2.3,7.68,2.3h9.71v6.89H510.55q-9.71,0-13.69-3.89t-4-13.41V45.78h-14v-6.7h14V24.17Z" transform="translate(-19.49 -18.36)"/><rect class="cls-1" y="82.34" width="274.51" height="14.86"/><rect class="cls-2" x="349.43" y="82.34" width="157.61" height="14.86"/><path class="cls-1" d="M51.29,156.28c.1-1.59.19-3.94.19-6V122.19h4.18v14.6h.09a8.65,8.65,0,0,1,7.92-4.28c5.77,0,9.85,4.8,9.8,11.86,0,8.3-5.24,12.43-10.42,12.43a8.27,8.27,0,0,1-7.78-4.37h-.14l-.19,3.85ZM55.66,147a7.63,7.63,0,0,0,.19,1.54,6.51,6.51,0,0,0,6.34,4.94c4.41,0,7-3.6,7-8.93,0-4.65-2.4-8.64-6.91-8.64a6.73,6.73,0,0,0-6.43,5.19,8,8,0,0,0-.24,1.73Z" transform="translate(-19.49 -18.36)"/><path class="cls-1" d="M91.66,156.28l-.34-2.93h-.14a8.67,8.67,0,0,1-7.11,3.45c-4.7,0-7.1-3.31-7.1-6.67,0-5.62,5-8.69,14-8.64V141c0-1.92-.53-5.38-5.28-5.38a11.63,11.63,0,0,0-6,1.73l-1-2.78a14.39,14.39,0,0,1,7.63-2.07c7.11,0,8.83,4.85,8.83,9.51v8.69a32.58,32.58,0,0,0,.39,5.57ZM91,144.42c-4.61-.1-9.84.72-9.84,5.23a3.74,3.74,0,0,0,4,4,5.77,5.77,0,0,0,5.61-3.89,4.21,4.21,0,0,0,.24-1.34Z" transform="translate(-19.49 -18.36)"/><path class="cls-1" d="M101.35,152a11.15,11.15,0,0,0,5.57,1.67c3.07,0,4.51-1.53,4.51-3.45s-1.2-3.12-4.32-4.27c-4.17-1.49-6.14-3.8-6.14-6.58,0-3.74,3-6.82,8-6.82A11.7,11.7,0,0,1,114.7,134L113.64,137a9.09,9.09,0,0,0-4.75-1.34c-2.5,0-3.89,1.44-3.89,3.17,0,1.92,1.39,2.78,4.42,3.94,4,1.53,6.09,3.55,6.09,7,0,4.09-3.16,7-8.69,7a13.22,13.22,0,0,1-6.52-1.59Z" transform="translate(-19.49 -18.36)"/><path class="cls-1" d="M123.29,145.43c.09,5.71,3.74,8.06,8,8.06a15.3,15.3,0,0,0,6.43-1.2l.72,3a18.85,18.85,0,0,1-7.73,1.44c-7.15,0-11.42-4.71-11.42-11.72s4.12-12.53,10.89-12.53c7.59,0,9.6,6.68,9.6,11a15.93,15.93,0,0,1-.14,2Zm12.38-3c.05-2.69-1.1-6.86-5.85-6.86-4.28,0-6.15,3.93-6.48,6.86Z" transform="translate(-19.49 -18.36)"/><path class="cls-1" d="M155.16,139.33c0-2.4,0-4.37-.19-6.29h3.74l.24,3.84h.1a8.54,8.54,0,0,1,7.68-4.37c3.21,0,8.21,1.92,8.21,9.89v13.88h-4.23v-13.4c0-3.74-1.39-6.86-5.37-6.86a6,6,0,0,0-5.67,4.32,6.15,6.15,0,0,0-.29,2v14h-4.22Z" transform="translate(-19.49 -18.36)"/><path class="cls-1" d="M194.66,156.28l-.33-2.93h-.15a8.65,8.65,0,0,1-7.1,3.45c-4.7,0-7.1-3.31-7.1-6.67,0-5.62,5-8.69,14-8.64V141c0-1.92-.52-5.38-5.28-5.38a11.6,11.6,0,0,0-6,1.73l-1-2.78a14.39,14.39,0,0,1,7.63-2.07c7.1,0,8.83,4.85,8.83,9.51v8.69a33.7,33.7,0,0,0,.38,5.57ZM194,144.42c-4.61-.1-9.84.72-9.84,5.23a3.73,3.73,0,0,0,4,4,5.78,5.78,0,0,0,5.62-3.89,4.51,4.51,0,0,0,.24-1.34Z" transform="translate(-19.49 -18.36)"/><path class="cls-1" d="M204.94,139.33c0-2.4-.05-4.37-.2-6.29h3.7l.19,3.75h.15a8,8,0,0,1,7.29-4.28,6.87,6.87,0,0,1,6.58,4.66h.09a9.42,9.42,0,0,1,2.6-3,7.9,7.9,0,0,1,5.13-1.64c3.08,0,7.64,2,7.64,10.08v13.69H234V143.12c0-4.46-1.63-7.15-5-7.15a5.48,5.48,0,0,0-5,3.84,7,7,0,0,0-.33,2.11v14.36h-4.13V142.35c0-3.69-1.63-6.38-4.85-6.38a5.77,5.77,0,0,0-5.23,4.22,5.88,5.88,0,0,0-.34,2.07v14h-4.12Z" transform="translate(-19.49 -18.36)"/><path class="cls-1" d="M247.32,145.43c.1,5.71,3.74,8.06,8,8.06a15.3,15.3,0,0,0,6.43-1.2l.72,3a18.85,18.85,0,0,1-7.73,1.44c-7.15,0-11.42-4.71-11.42-11.72s4.13-12.53,10.89-12.53c7.59,0,9.6,6.68,9.6,11a15.93,15.93,0,0,1-.14,2Zm12.38-3c.05-2.69-1.1-6.86-5.85-6.86-4.27,0-6.15,3.93-6.48,6.86Z" transform="translate(-19.49 -18.36)"/><path class="cls-2" d="M355.44,145.43c.1,5.71,3.75,8.06,8,8.06a15.26,15.26,0,0,0,6.43-1.2l.73,3a18.89,18.89,0,0,1-7.73,1.44c-7.16,0-11.43-4.71-11.43-11.72s4.13-12.53,10.9-12.53c7.58,0,9.6,6.68,9.6,11a15.54,15.54,0,0,1-.15,2Zm12.39-3c.05-2.69-1.11-6.86-5.86-6.86-4.27,0-6.14,3.93-6.48,6.86Z" transform="translate(-19.49 -18.36)"/><path class="cls-2" d="M379,133l3.32,5c.86,1.3,1.58,2.5,2.35,3.8h.14c.77-1.4,1.54-2.6,2.31-3.84l3.26-5h4.56L387,144.27l8.16,12h-4.8L386.93,151c-.91-1.34-1.68-2.64-2.49-4h-.1c-.77,1.39-1.58,2.64-2.45,4l-3.36,5.24h-4.65l8.25-11.86L374.26,133Z" transform="translate(-19.49 -18.36)"/><path class="cls-2" d="M404.93,126.37V133H411v3.22h-6.05v12.53c0,2.88.82,4.51,3.17,4.51a9.18,9.18,0,0,0,2.45-.29l.19,3.17a10.24,10.24,0,0,1-3.74.58,5.85,5.85,0,0,1-4.56-1.78c-1.2-1.25-1.64-3.31-1.64-6V136.26h-3.6V133h3.6v-5.57Z" transform="translate(-19.49 -18.36)"/><path class="cls-2" d="M417.79,145.43c.1,5.71,3.75,8.06,8,8.06a15.35,15.35,0,0,0,6.44-1.2l.72,3a18.89,18.89,0,0,1-7.73,1.44c-7.15,0-11.43-4.71-11.43-11.72s4.13-12.53,10.9-12.53c7.58,0,9.6,6.68,9.6,11a18.21,18.21,0,0,1-.14,2Zm12.39-3c.05-2.69-1.1-6.86-5.86-6.86-4.27,0-6.14,3.93-6.48,6.86Z" transform="translate(-19.49 -18.36)"/><path class="cls-2" d="M439.49,139.33c0-2.4-.05-4.37-.19-6.29H443l.24,3.84h.1a8.54,8.54,0,0,1,7.68-4.37c3.22,0,8.21,1.92,8.21,9.89v13.88H455v-13.4c0-3.74-1.39-6.86-5.37-6.86a6,6,0,0,0-5.67,4.32,6.15,6.15,0,0,0-.29,2v14h-4.22Z" transform="translate(-19.49 -18.36)"/><path class="cls-2" d="M465.55,152a11.15,11.15,0,0,0,5.57,1.67c3.07,0,4.51-1.53,4.51-3.45s-1.2-3.12-4.32-4.27c-4.17-1.49-6.14-3.8-6.14-6.58,0-3.74,3-6.82,8-6.82A11.69,11.69,0,0,1,478.9,134L477.84,137a9,9,0,0,0-4.75-1.35c-2.5,0-3.89,1.44-3.89,3.17,0,1.92,1.39,2.78,4.42,3.94,4,1.53,6.09,3.55,6.09,7,0,4.09-3.16,7-8.68,7a13.23,13.23,0,0,1-6.53-1.59Z" transform="translate(-19.49 -18.36)"/><path class="cls-2" d="M489.84,126.51a2.62,2.62,0,0,1-5.23,0,2.57,2.57,0,0,1,2.64-2.64A2.51,2.51,0,0,1,489.84,126.51Zm-4.7,29.77V133h4.22v23.24Z" transform="translate(-19.49 -18.36)"/><path class="cls-2" d="M517.4,144.47c0,8.59-6,12.33-11.57,12.33-6.29,0-11.14-4.6-11.14-12,0-7.78,5.09-12.34,11.52-12.34C512.88,132.51,517.4,137.36,517.4,144.47Zm-18.44.24c0,5.08,2.93,8.92,7.06,8.92s7.06-3.79,7.06-9c0-3.94-2-8.93-7-8.93S499,140.29,499,144.71Z" transform="translate(-19.49 -18.36)"/><path class="cls-2" d="M522.72,139.33c0-2.4-.05-4.37-.19-6.29h3.74l.24,3.84h.1a8.54,8.54,0,0,1,7.68-4.37c3.22,0,8.21,1.92,8.21,9.89v13.88h-4.23v-13.4c0-3.74-1.39-6.86-5.37-6.86a6,6,0,0,0-5.67,4.32,6.16,6.16,0,0,0-.28,2v14h-4.23Z" transform="translate(-19.49 -18.36)"/></svg>